PathFileType  4	(X/Y/Z) C:\Users\wagnerel85475\Documents\Thesis\opencap-core\Data\3375ffbc-daeb-4a43-b4f7-ac9899cd4c71\MarkerData\PreAugmentation
DataRate	CameraRate	NumFrames	NumMarkers	Units	OrigDataRate	OrigDataStartFrame	OrigNumFrames
60.0	60.0	18	20	m	60.0	113	897
Frame#	Time	Neck			RShoulder			RElbow			RWrist			LShoulder			LElbow			LWrist			midHip			RHip			RKnee			RAnkle			LHip			LKnee			LAnkle			LBigToe			LSmallToe			LHeel			RBigToe			RSmallToe			RHeel			
		X1	Y1	Z1	X2	Y2	Z2	X3	Y3	Z3	X4	Y4	Z4	X5	Y5	Z5	X6	Y6	Z6	X7	Y7	Z7	X8	Y8	Z8	X9	Y9	Z9	X10	Y10	Z10	X11	Y11	Z11	X12	Y12	Z12	X13	Y13	Z13	X14	Y14	Z14	X15	Y15	Z15	X16	Y16	Z16	X17	Y17	Z17	X18	Y18	Z18	X19	Y19	Z19	X20	Y20	Z20	

113	1.8666667	0.6663500	1.3648700	-0.1132900	0.6859600	1.3680100	0.0782100	0.6401500	1.0529500	0.1686000	0.7298800	0.7726200	0.2039500	0.6934100	1.3579200	-0.2942300	0.6279100	1.0531800	-0.3676200	0.7044500	0.7598700	-0.4015100	0.7056100	0.8212100	-0.1001700	0.6934900	0.8191300	0.0185100	0.6174000	0.3095900	0.0439200	0.5613300	-0.1869800	0.0853400	0.7168500	0.8234500	-0.2146400	0.6150400	0.3119900	-0.2183900	0.6092800	-0.1601700	-0.2817900	0.8075100	-0.2245500	-0.3420100	0.7488600	-0.2314600	-0.3866200	0.5617100	-0.2195900	-0.2604900	0.7898100	-0.2345300	0.1288000	0.7424100	-0.2216200	0.1740300	0.5194100	-0.2345000	0.0725600
114	1.8833333	0.6657600	1.3618200	-0.1135900	0.6848600	1.3681700	0.0777400	0.6413100	1.0564800	0.1690400	0.7504600	0.7786500	0.2087300	0.6941100	1.3578800	-0.2947300	0.6372800	1.0528100	-0.3717500	0.7404800	0.7679600	-0.4095500	0.7045900	0.8185300	-0.0994200	0.6915400	0.8191000	0.0189400	0.6171400	0.3094200	0.0443000	0.5613700	-0.1867000	0.0852700	0.7071600	0.8200300	-0.2179100	0.6156800	0.3121600	-0.2188200	0.6088000	-0.1607800	-0.2820300	0.8080900	-0.2245200	-0.3419200	0.7493000	-0.2314600	-0.3865600	0.5618500	-0.2195300	-0.2604200	0.7901400	-0.2313000	0.1279300	0.7423300	-0.2187800	0.1734900	0.5184400	-0.2353400	0.0727100
115	1.9000000	0.6660200	1.3617300	-0.1133700	0.6762600	1.3682700	0.0751100	0.6325900	1.0600100	0.1733600	0.7704600	0.7917500	0.2156900	0.6843300	1.3580400	-0.2982700	0.6469200	1.0573400	-0.3755200	0.7500000	0.7768200	-0.4121900	0.6965800	0.8208800	-0.0956300	0.6926100	0.8229600	0.0188600	0.6255400	0.3156800	0.0400200	0.5614900	-0.1867100	0.0853000	0.7078200	0.8163200	-0.2101400	0.6158500	0.3174300	-0.2181500	0.6082500	-0.1607900	-0.2829700	0.7993900	-0.2273700	-0.3457900	0.7577800	-0.2280400	-0.3902100	0.5609000	-0.2228600	-0.2610700	0.7901000	-0.2312700	0.1281100	0.7421800	-0.2185200	0.1734200	0.5196100	-0.2314100	0.0719900
116	1.9166667	0.6655300	1.3619500	-0.1135600	0.6846500	1.3682400	0.0778400	0.6434200	1.0642300	0.1767400	0.7904000	0.8058700	0.2211200	0.6849900	1.3581700	-0.2986900	0.6558800	1.0642200	-0.3796300	0.7510100	0.7806900	-0.4132700	0.6866500	0.8165200	-0.0990100	0.6907700	0.8231600	0.0191600	0.6344100	0.3177800	0.0358200	0.5616600	-0.1866200	0.0852600	0.6982200	0.8157000	-0.2137500	0.6153400	0.3198500	-0.2187900	0.6079000	-0.1614100	-0.2831700	0.7998600	-0.2274200	-0.3457200	0.7494100	-0.2279400	-0.3860200	0.5611000	-0.2227500	-0.2609200	0.7979900	-0.2313700	0.1241700	0.7506300	-0.2157800	0.1689100	0.5185700	-0.2352600	0.0728500
117	1.9333333	0.6660000	1.3618000	-0.1133100	0.6762100	1.3682600	0.0751900	0.6438100	1.0666100	0.1762600	0.8007800	0.8137900	0.2248300	0.6932700	1.3581500	-0.2941700	0.6562400	1.0683000	-0.3795300	0.7863400	0.7925300	-0.4196000	0.6865900	0.8198600	-0.0992100	0.6924300	0.8230000	0.0188200	0.6346100	0.3176900	0.0353600	0.5615800	-0.1867000	0.0852400	0.6803500	0.8130100	-0.2056100	0.6157600	0.3173600	-0.2180100	0.6082600	-0.1645200	-0.2835300	0.8161800	-0.2212400	-0.3456400	0.7488600	-0.2313700	-0.3866400	0.5609700	-0.2229000	-0.2610900	0.7902400	-0.2346100	0.1287300	0.7505000	-0.2155800	0.1688500	0.5195300	-0.2313500	0.0719800
118	1.9500000	0.6655800	1.3653100	-0.1134500	0.6846800	1.3682800	0.0778400	0.6447800	1.0676400	0.1769400	0.8258400	0.8245600	0.2179600	0.6938900	1.3617100	-0.2944700	0.6561500	1.0746600	-0.3799800	0.8381900	0.8093100	-0.4185200	0.6768500	0.8194900	-0.0943500	0.6904300	0.8231300	0.0192600	0.6433800	0.3197100	0.0313400	0.5617600	-0.1864500	0.0851900	0.6703300	0.8092100	-0.2009000	0.6162600	0.3171200	-0.2184700	0.6079300	-0.1651800	-0.2837800	0.8000200	-0.2274000	-0.3457300	0.7493200	-0.2313900	-0.3865600	0.5611400	-0.2228700	-0.2609900	0.7905600	-0.2315500	0.1279000	0.7425200	-0.2187400	0.1733500	0.5194000	-0.2289900	0.0714600
119	1.9666667	0.6660600	1.3652200	-0.1132200	0.6762100	1.3682800	0.0751300	0.6537600	1.0719400	0.1798600	0.8513100	0.8344000	0.2125900	0.6931700	1.3617700	-0.2939600	0.6653800	1.0761200	-0.3833400	0.8638300	0.8268600	-0.4136500	0.6685100	0.8145100	-0.0904900	0.6738400	0.8175500	0.0201100	0.6437700	0.3198000	0.0308500	0.5616400	-0.1866200	0.0852400	0.6629500	0.8041600	-0.1969800	0.6157800	0.3173800	-0.2180500	0.6084700	-0.1717700	-0.2834800	0.7995000	-0.2274300	-0.3457900	0.7578700	-0.2280700	-0.3902200	0.5609600	-0.2230200	-0.2611000	0.7901500	-0.2317900	0.1281100	0.7326600	-0.2220000	0.1704400	0.5306100	-0.2246200	0.0744700
120	1.9833333	0.6655500	1.3655200	-0.1134400	0.6753700	1.3713200	0.0746100	0.6751300	1.0739800	0.1867200	0.8863700	0.8495600	0.2088000	0.6937500	1.3619800	-0.2944500	0.6655300	1.0826500	-0.3838800	0.8795900	0.8464100	-0.4136200	0.6588000	0.8141600	-0.0855800	0.6720700	0.8178500	0.0205900	0.6527700	0.3219700	0.0267100	0.5624000	-0.1902100	0.0845800	0.6613800	0.8077700	-0.1968100	0.6163400	0.3173300	-0.2185600	0.6080500	-0.1724600	-0.2837500	0.8086900	-0.2241300	-0.3493800	0.7582700	-0.2280400	-0.3901600	0.5609100	-0.2229600	-0.2609500	0.7728100	-0.2381800	0.1293200	0.7326200	-0.2222600	0.1705200	0.5298900	-0.2255500	0.0746500
121	2.0000000	0.6662600	1.3653200	-0.1132400	0.6766100	1.3710800	0.0751200	0.6966000	1.0738200	0.1922300	0.9126800	0.8764800	0.2110000	0.6931100	1.3656600	-0.2940900	0.6662300	1.0837300	-0.3837000	0.8891900	0.8548000	-0.4164000	0.6495500	0.8049800	-0.0898900	0.6647900	0.8090100	0.0244900	0.6710900	0.3260900	0.0250500	0.5709800	-0.1874100	0.0802400	0.6624800	0.8031400	-0.1970400	0.6144900	0.3232800	-0.2188200	0.6085900	-0.1679400	-0.2829600	0.8080300	-0.2240900	-0.3494700	0.7580000	-0.2245700	-0.3897300	0.5708600	-0.2194000	-0.2651400	0.7982400	-0.2285100	0.1236600	0.7409900	-0.2188800	0.1658500	0.5316700	-0.2287000	0.0738000
122	2.0166667	0.6657600	1.3725300	-0.1134600	0.6850300	1.3710900	0.0778100	0.7068500	1.0828400	0.1960600	0.9299500	0.8861900	0.2088100	0.7028500	1.3690300	-0.2904300	0.6844500	1.0911900	-0.3915300	0.9053900	0.8706900	-0.4166000	0.6485000	0.8053500	-0.0971900	0.6721300	0.8132700	0.0201400	0.6803400	0.3314300	0.0207600	0.5712900	-0.1872500	0.0801600	0.6612500	0.7996300	-0.1969000	0.6247000	0.3344000	-0.2247200	0.6081400	-0.1686900	-0.2831700	0.8085200	-0.2243400	-0.3495300	0.7500800	-0.2310500	-0.3941100	0.5612700	-0.2228800	-0.2608800	0.7904900	-0.2312900	0.1278800	0.7410700	-0.2191100	0.1659300	0.5313000	-0.2296300	0.0739000
123	2.0333333	0.6664400	1.3723000	-0.1132300	0.6766600	1.3710300	0.0751000	0.7159900	1.0870100	0.1987000	0.9538700	0.8954800	0.2036000	0.7023700	1.3689900	-0.2899400	0.6941200	1.0926500	-0.3950300	0.9468400	0.8855900	-0.4110900	0.6394600	0.8073100	-0.1018400	0.6740900	0.8162100	0.0192100	0.6719300	0.3307700	0.0256500	0.5714400	-0.1874900	0.0802000	0.6428700	0.8039500	-0.2051100	0.6235300	0.3315800	-0.2236800	0.6084800	-0.1681300	-0.2828800	0.8080300	-0.2244000	-0.3495300	0.7496300	-0.2310900	-0.3942200	0.5610500	-0.2231100	-0.2609700	0.7923000	-0.2312100	0.1355800	0.7424900	-0.2184500	0.1733300	0.5525200	-0.2265000	0.0716400
124	2.0500000	0.6752800	1.3723400	-0.1098100	0.6755500	1.3712900	0.0746000	0.7171600	1.0949900	0.1992100	0.9922900	0.9139300	0.1880800	0.7032000	1.3692100	-0.2903200	0.7119400	1.1006500	-0.3950000	0.9853600	0.9142900	-0.4061200	0.6385400	0.8079500	-0.1011600	0.6709800	0.8135600	0.0123200	0.6900600	0.3379000	0.0246400	0.5714800	-0.1875500	0.0802200	0.6416800	0.8046600	-0.2047000	0.6244000	0.3282300	-0.2238100	0.6080100	-0.1687100	-0.2831100	0.7997200	-0.2275000	-0.3458500	0.7501200	-0.2310400	-0.3940700	0.5611400	-0.2230400	-0.2608400	0.8013500	-0.2308500	0.1389700	0.7425600	-0.2187600	0.1734800	0.5390500	-0.2329800	0.0708600
125	2.0666667	0.6760600	1.3720700	-0.1095500	0.6861200	1.3708400	0.0782600	0.7168700	1.0944400	0.1988300	1.0079800	0.9382900	0.1871600	0.7028100	1.3690000	-0.2898300	0.7305900	1.1018200	-0.4022600	0.9941000	0.9217900	-0.4017100	0.6216300	0.8148500	-0.0939300	0.6653800	0.8212900	0.0154900	0.7000200	0.3327700	0.0276200	0.5709700	-0.1910500	0.0809500	0.6142200	0.8081900	-0.2093700	0.6428400	0.3390900	-0.2324300	0.6089200	-0.1713400	-0.2822700	0.7992300	-0.2275300	-0.3458600	0.7499100	-0.2276700	-0.3935800	0.5610600	-0.2229200	-0.2610200	0.8012900	-0.2310900	0.1392700	0.7344300	-0.2251300	0.1774700	0.5497500	-0.2316700	0.0745000
126	2.0833333	0.6758000	1.3652100	-0.1096000	0.6849700	1.3680600	0.0778100	0.7279200	1.0954300	0.2025000	1.0158100	0.9531000	0.1819400	0.7033100	1.3660700	-0.2902600	0.7398800	1.1086300	-0.3985100	1.0097600	0.9302500	-0.4015700	0.6286000	0.8068200	-0.0969400	0.6620100	0.8122800	0.0167100	0.7197800	0.3371700	0.0348400	0.5712000	-0.1911600	0.0809800	0.6124900	0.8022400	-0.2168500	0.6533000	0.3411500	-0.2371800	0.6089000	-0.1680600	-0.2820300	0.8086600	-0.2241500	-0.3494700	0.7586200	-0.2248200	-0.3896800	0.5611700	-0.2229400	-0.2609200	0.7945500	-0.2345500	0.1421200	0.7260700	-0.2282900	0.1821400	0.5490700	-0.2353500	0.0752900
127	2.1000000	0.6762700	1.3649400	-0.1093600	0.6861000	1.3678100	0.0783100	0.7368300	1.1031200	0.2050000	1.0527100	0.9636600	0.1683400	0.7024000	1.3658200	-0.2898400	0.7661200	1.1103200	-0.3933100	1.0407000	0.9430700	-0.3851900	0.6018200	0.8006100	-0.0921700	0.6350000	0.8025800	0.0223100	0.7299200	0.3393000	0.0377400	0.5809600	-0.1881400	0.0840000	0.5958000	0.7995700	-0.2168200	0.6620500	0.3332300	-0.2403200	0.6101000	-0.1630700	-0.2812000	0.8080500	-0.2210400	-0.3501000	0.7579700	-0.2281300	-0.3902900	0.5617400	-0.2195300	-0.2604700	0.7946000	-0.2347500	0.1423800	0.7260600	-0.2280300	0.1820800	0.5501200	-0.2390800	0.0744800
128	2.1166667	0.6856300	1.3648400	-0.1058100	0.6853300	1.3680000	0.0778200	0.7560300	1.1046700	0.2042500	1.0689200	0.9811900	0.1657100	0.7120800	1.3627500	-0.2863200	0.7752600	1.1174900	-0.3896600	1.0628100	0.9689500	-0.3739000	0.6002100	0.8044200	-0.0914400	0.6240400	0.8019800	0.0272400	0.7299400	0.3362600	0.0387300	0.5809900	-0.1877700	0.0839500	0.5945200	0.8006100	-0.2161600	0.6719600	0.3348800	-0.2449100	0.6119200	-0.1626200	-0.2805200	0.8078400	-0.2214200	-0.3425800	0.7579800	-0.2251800	-0.3820300	0.5717500	-0.2160900	-0.2643600	0.7945200	-0.2274500	0.1421800	0.7342500	-0.2252000	0.1775500	0.5496500	-0.2369900	0.0740300
129	2.1333333	0.6957200	1.3608900	-0.1019200	0.6866000	1.3675200	0.0783000	0.7832300	1.1056100	0.2051900	1.0888000	0.9926600	0.1538000	0.7116200	1.3549500	-0.2858800	0.7840700	1.1147400	-0.3851100	1.0626300	0.9823400	-0.3729800	0.5917100	0.7904700	-0.0882700	0.5961000	0.7861200	0.0241100	0.7396600	0.3414900	0.0411400	0.5813400	-0.1846000	0.0833800	0.5943300	0.7912300	-0.2168000	0.6717200	0.3352600	-0.2445300	0.6114700	-0.1660200	-0.2807000	0.8074500	-0.2213300	-0.3425500	0.7573400	-0.2251200	-0.3821300	0.5714300	-0.2158900	-0.2645700	0.7941900	-0.2272200	0.1425600	0.7258100	-0.2244000	0.1826200	0.5500200	-0.2315500	0.0744100
130	2.1500000	0.6952600	1.3573200	-0.1021500	0.6858400	1.3603100	0.0779300	0.8026900	1.1071200	0.2042000	1.1032700	1.0078000	0.1444400	0.7122700	1.3517300	-0.2864400	0.7942400	1.1039800	-0.3889800	1.0924400	0.9849200	-0.3647900	0.5807400	0.7897400	-0.0911800	0.5644800	0.7829000	0.0218900	0.7490500	0.3435400	0.0448200	0.5729700	-0.1871800	0.0877200	0.5925900	0.7923500	-0.2165800	0.6814400	0.3403800	-0.2495000	0.6106100	-0.1593500	-0.2811100	0.8160900	-0.2183200	-0.3386300	0.7580700	-0.2250700	-0.3818000	0.5626600	-0.2195100	-0.2682600	0.7956600	-0.2259800	0.1495800	0.7257600	-0.2213200	0.1821200	0.5496900	-0.2296300	0.0739000
